<svg id="Layer_1" data-name="Layer 1" xmlns="http://www.w3.org/2000/svg" viewBox="0 0 340.43 335.08"><defs><style>.cls-1{stroke:#000;stroke-miterlimit:10;}.cls-2{fill:#fff;}</style></defs><rect class="cls-1" x="84.2" y="114.08" width="14.45" height="137.46" rx="7.23"/><rect class="cls-1" x="121.7" y="42.34" width="14.45" height="253.93" rx="7.23"/><rect x="1698.95" y="956.12" width="14.45" height="166.15" rx="7.23" transform="translate(1207.11 -1526) rotate(90)"/><rect x="206.83" y="45.98" width="14.45" height="253.93" rx="7.23"/><rect x="243.76" y="114.08" width="14.45" height="137.46" rx="7.23"/><rect y="7.71" width="7.71" height="327.37"/><rect x="1704.62" y="692.66" width="7.71" height="340.43" transform="translate(1033.1 -1704.62) rotate(90)"/><rect x="332.73" y="7.71" width="7.71" height="327.37"/><path class="cls-2" d="M1612.9,1192.42h-69.8" transform="translate(-1538.26 -859.02)"/><rect x="1834.94" y="1151.5" width="7.71" height="77.51" rx="3.85" transform="translate(1490.79 -1507.57) rotate(90)"/><rect x="1573.16" y="1151.5" width="7.71" height="77.51" rx="3.85" transform="translate(1229.01 -1245.79) rotate(90)"/></svg>